<svg width="406" height="431" viewBox="0 0 406 431" fill="none" xmlns="http://www.w3.org/2000/svg">
<path fill-rule="evenodd" clip-rule="evenodd" d="M202 367C304.725 367 388 335.212 388 296C388 256.788 304.725 225 202 225C201.942 225 201.885 225 201.827 225C288.6 225.031 358.916 249.795 358.916 280.338C358.916 310.901 288.511 335.676 201.662 335.676C114.812 335.676 44.4071 310.901 44.4071 280.338C44.4071 250.673 110.739 226.46 194.057 225.064C95.0163 226.652 16 257.804 16 296C16 335.212 99.275 367 202 367Z" fill="#FFFBFB"/>
<rect width="68.8279" height="189.435" rx="34.414" transform="matrix(0.528431 0.848976 -0.765077 0.643938 304.989 122.466)" fill="#FFFBFB"/>
<rect width="69.0244" height="188.839" rx="34.5122" transform="matrix(0.511385 -0.859352 0.779087 0.626915 59.6587 184.614)" fill="#FFFBFB"/>
<path d="M167.409 136.624C167.409 114.73 182.672 96.9818 201.5 96.9818V96.9818C220.328 96.9818 235.59 114.73 235.59 136.624V247.056C235.59 268.95 220.328 286.698 201.5 286.698V286.698C182.672 286.698 167.409 268.95 167.409 247.056V136.624Z" fill="#FFFBFB"/>
<ellipse cx="194.804" cy="45.3054" rx="40.787" ry="45.3054" fill="#FFFBFB"/>
<path d="M76.0951 122.466C76.0951 147.488 59.0607 167.771 38.0476 167.771C17.0345 167.771 0 147.488 0 122.466C0 97.4446 17.0345 77.1607 38.0476 77.1607C59.0607 77.1607 76.0951 97.4446 76.0951 122.466Z" fill="#FFFBFB"/>
<ellipse cx="362.213" cy="122.466" rx="40.787" ry="45.3054" fill="#FFFBFB"/>
<path d="M43.36 418.065V420H16V418.065H26.17V394.62H17.26V388.545H42.1V394.62H33.19V418.065H43.36ZM47.2479 418.065V388.545H69.9279V394.8H54.2679V401.28H68.3529V407.265H54.2679V413.79H70.4229V418.065H74.7879V420H42.8829V418.065H47.2479ZM110.936 418.065V420H99.1013L96.1763 413.205H82.9913L80.0663 420H68.2313V418.065H73.4063L86.1863 388.545H92.9813L105.716 418.065H110.936ZM89.6063 397.905L85.6463 407.04H93.5213L89.6063 397.905ZM138.392 400.2L129.887 417.39H125.702L117.242 400.2V420H105.857V418.065H110.222V388.545H119.717L127.817 405.825L135.962 388.545H145.412V418.065H149.777V420H138.392V400.2ZM161.166 418.065V420H149.286V418.065H161.166ZM188.691 418.065V420H161.151V418.065H165.021V388.545H186.621V394.71H172.041V401.505H185.901V407.67H172.041V418.065H188.691ZM225.875 418.065V420H188.705V418.065H198.74C196.28 416.655 194.33 414.72 192.89 412.26C191.48 409.8 190.775 407.07 190.775 404.07C190.775 399.45 192.365 395.595 195.545 392.505C198.725 389.385 202.64 387.825 207.29 387.825C211.94 387.825 215.855 389.385 219.035 392.505C222.215 395.595 223.805 399.45 223.805 404.07C223.805 407.07 223.085 409.8 221.645 412.26C220.205 414.72 218.27 416.655 215.84 418.065H225.875ZM216.65 404.115C216.65 401.295 215.75 398.895 213.95 396.915C212.15 394.935 209.93 393.945 207.29 393.945C204.68 393.945 202.475 394.935 200.675 396.915C198.875 398.895 197.975 401.295 197.975 404.115C197.975 406.905 198.875 409.29 200.675 411.27C202.475 413.22 204.68 414.195 207.29 414.195C209.93 414.195 212.15 413.22 213.95 411.27C215.75 409.29 216.65 406.905 216.65 404.115ZM229.753 418.065V388.545H241.678C246.568 388.545 250.048 389.37 252.118 391.02C254.218 392.67 255.268 395.325 255.268 398.985C255.268 404.025 253.273 407.28 249.283 408.75L255.853 418.065H260.083V420H248.608L241.633 409.965H236.773V420H225.388V418.065H229.753ZM241.903 403.89C244.303 403.89 245.938 403.5 246.808 402.72C247.678 401.94 248.113 400.71 248.113 399.03C248.113 397.32 247.663 396.15 246.763 395.52C245.863 394.89 244.288 394.575 242.038 394.575H236.773V403.89H241.903ZM270.458 418.065V420H258.578V418.065H270.458ZM304.733 418.065V420H293.843V407.625H281.333V420H270.443V418.065H274.313V388.545H281.333V401.685H293.843V388.545H300.863V418.065H304.733ZM342.836 418.065V420H331.001L328.076 413.205H314.891L311.966 420H300.131V418.065H305.306L318.086 388.545H324.881L337.616 418.065H342.836ZM321.506 397.905L317.546 407.04H325.421L321.506 397.905ZM371.371 418.065V420H338.251V418.065H347.926C345.526 416.655 343.636 414.75 342.256 412.35C340.906 409.92 340.231 407.175 340.231 404.115C340.231 399.495 341.821 395.625 345.001 392.505C348.211 389.385 352.126 387.825 356.746 387.825C361.906 387.825 366.226 389.79 369.706 393.72L365.341 398.67C363.121 395.91 360.361 394.53 357.061 394.53C354.421 394.53 352.156 395.4 350.266 397.14C348.406 398.85 347.476 401.175 347.476 404.115C347.476 407.025 348.361 409.365 350.131 411.135C351.901 412.905 354.046 413.79 356.566 413.79C360.016 413.79 362.836 412.425 365.026 409.695L369.526 414.33C368.206 415.86 366.721 417.105 365.071 418.065H371.371ZM390.331 402.45L401.446 418.065H405.181V420H394.651L385.426 407.58L382.276 411.09V420H371.386V418.065H375.256V388.545H382.276V401.46L394.156 388.545H402.841L390.331 402.45Z" fill="#FFF5F5"/>
</svg>
